<svg width="67" height="67" viewBox="0 0 67 67" fill="none" xmlns="http://www.w3.org/2000/svg">
<path d="M51.9398 0H15.0607C11.5067 0 8.61523 2.89147 8.61523 6.44548V60.5545C8.61523 64.1085 11.5067 67 15.0607 67H51.9398C55.4938 67 58.3852 64.1085 58.3852 60.5545V6.44548C58.3852 2.89147 55.4938 0 51.9398 0ZM54.4595 60.5545C54.4595 61.9439 53.3291 63.0742 51.9398 63.0742H15.0607C13.6714 63.0742 12.541 61.9439 12.541 60.5545V6.44548C12.541 5.05614 13.6714 3.92578 15.0607 3.92578H51.9398C53.3291 3.92578 54.4595 5.05614 54.4595 6.44548V60.5545Z" fill="#D2C4C2"/>
<path d="M49.5507 7.20987H17.4492C16.3652 7.20987 15.4863 8.08872 15.4863 9.17276V16.9743C15.4863 18.0584 16.3652 18.9372 17.4492 18.9372H49.5507C50.6348 18.9372 51.5136 18.0584 51.5136 16.9743V9.17276C51.5136 8.08872 50.6348 7.20987 49.5507 7.20987ZM47.5878 15.0114H19.4121V11.1356H47.5878V15.0114Z" fill="#A8544A"/>
<path d="M36.9649 26.1931H17.4492C16.3652 26.1931 15.4863 27.072 15.4863 28.156V33.9416C15.4863 35.0256 16.3652 35.9045 17.4492 35.9045H36.9649C38.049 35.9045 38.9278 35.0256 38.9278 33.9416V28.156C38.9278 27.072 38.049 26.1931 36.9649 26.1931ZM35.002 31.9787H19.4121V30.1189H35.002V31.9787Z" fill="#D2C4C2"/>
<path d="M49.8721 26.1931H43.2637C42.1796 26.1931 41.3008 27.072 41.3008 28.156V33.9416C41.3008 35.0256 42.1796 35.9045 43.2637 35.9045H49.8721C50.9561 35.9045 51.835 35.0256 51.835 33.9416V28.156C51.835 27.072 50.9561 26.1931 49.8721 26.1931ZM47.9092 31.9787H45.2266V30.1189H47.9092V31.9787Z" fill="#D2C4C2"/>
<path d="M49.8721 37.8096H43.2637C42.1796 37.8096 41.3008 38.6885 41.3008 39.7725V45.5581C41.3008 46.6421 42.1796 47.521 43.2637 47.521H49.8721C50.9561 47.521 51.835 46.6421 51.835 45.5581V39.7725C51.835 38.6885 50.9561 37.8096 49.8721 37.8096ZM47.9092 43.5952H45.2266V41.7354H47.9092V43.5952Z" fill="#D2C4C2"/>
<path d="M36.9658 37.8096H30.3574C29.2734 37.8096 28.3945 38.6885 28.3945 39.7725V45.5581C28.3945 46.6421 29.2734 47.521 30.3574 47.521H36.9658C38.0499 47.521 38.9287 46.6421 38.9287 45.5581V39.7725C38.9287 38.6885 38.0499 37.8096 36.9658 37.8096ZM35.0029 43.5952H32.3203V41.7354H35.0029V43.5952Z" fill="#D2C4C2"/>
<path d="M24.0576 37.8096H17.4492C16.3652 37.8096 15.4863 38.6885 15.4863 39.7725V45.5581C15.4863 46.6421 16.3652 47.521 17.4492 47.521H24.0576C25.1416 47.521 26.0205 46.6421 26.0205 45.5581V39.7725C26.0205 38.6885 25.1416 37.8096 24.0576 37.8096ZM22.0947 43.5952H19.4121V41.7354H22.0947V43.5952Z" fill="#D2C4C2"/>
<path d="M49.8721 49.4261H43.2637C42.1796 49.4261 41.3008 50.305 41.3008 51.389V57.1746C41.3008 58.2586 42.1796 59.1375 43.2637 59.1375H49.8721C50.9561 59.1375 51.835 58.2586 51.835 57.1746V51.389C51.835 50.3049 50.9561 49.4261 49.8721 49.4261ZM47.9092 55.2117H45.2266V53.3519H47.9092V55.2117Z" fill="#D2C4C2"/>
<path d="M36.9658 49.4261H30.3574C29.2734 49.4261 28.3945 50.305 28.3945 51.389V57.1746C28.3945 58.2586 29.2734 59.1375 30.3574 59.1375H36.9658C38.0499 59.1375 38.9287 58.2586 38.9287 57.1746V51.389C38.9287 50.3049 38.0499 49.4261 36.9658 49.4261ZM35.0029 55.2117H32.3203V53.3519H35.0029V55.2117Z" fill="#D2C4C2"/>
<path d="M24.0576 49.4261H17.4492C16.3652 49.4261 15.4863 50.305 15.4863 51.389V57.1746C15.4863 58.2586 16.3652 59.1375 17.4492 59.1375H24.0576C25.1416 59.1375 26.0205 58.2586 26.0205 57.1746V51.389C26.0205 50.3049 25.1416 49.4261 24.0576 49.4261ZM22.0947 55.2117H19.4121V53.3519H22.0947V55.2117Z" fill="#D2C4C2"/>
</svg>
