<svg width="67" height="67" viewBox="0 0 67 67" fill="none" xmlns="http://www.w3.org/2000/svg">
<g clip-path="url(#clip0)">
<path d="M56.9269 45.3449L41.1854 41.6773L40.5561 39.0481C43.7589 36.7903 45.9702 33.0706 46.3359 28.7944C49.3395 27.0991 50.1639 23.0404 48.2736 20.1989C51.6783 18.3439 53.6123 15.3096 53.0804 11.4808C52.4964 7.27521 49.2481 3.82524 43.9343 1.7666C37.9252 -0.561568 29.2009 -0.884242 25.0031 2.60532C23.7284 3.66502 22.3461 3.94639 21.0093 4.21842C19.5872 4.50782 17.9754 4.83588 16.848 6.17104C15.7116 7.51685 15.375 9.47605 15.7563 12.5234C16.0934 15.2174 17.8961 17.8139 19.2983 19.4735C16.8227 22.1483 17.2969 26.6314 20.3836 28.623C20.6982 32.8936 22.8528 36.6245 26.0044 38.9238L25.6592 41.713L10.0718 45.3449C6.47111 46.1504 3.90234 49.3524 3.90234 53.0471V67H63.0965V53.047C63.0963 49.3574 60.5326 46.1514 56.9269 45.3449ZM19.8631 8.71718C20.106 8.42949 20.9271 8.26243 21.7963 8.08551C23.3542 7.76849 25.4878 7.33427 27.5258 5.64C30.1476 3.46034 37.1488 3.36984 42.5086 5.44637C44.7779 6.3256 48.6611 8.34912 49.1715 12.0236C49.5508 14.7539 47.4812 16.2688 45.8061 17.0359C45.0281 15.3056 43.5268 13.931 41.6407 13.3702L41.2899 13.2658L40.925 13.2942C37.8623 13.5331 34.7387 12.7203 32.0931 10.7896L30.7412 9.80346L29.6346 10.4288C27.6715 11.5381 25.5432 12.6389 24.9765 12.8402C23.1816 13.1141 21.7948 13.9677 21.0238 15.1891C20.3532 14.1645 19.7986 13.0449 19.6721 12.0331C19.3595 9.53629 19.7393 8.86385 19.8631 8.71718ZM24.29 27.5372V25.9314L22.9172 25.4929C22.1771 25.2565 21.6603 24.4744 21.6603 23.591C21.6603 22.7074 22.1772 21.9252 22.9171 21.689L24.29 21.2505V17.5984C24.29 17.1469 24.7399 16.856 25.6271 16.7335C25.8895 16.6973 26.6446 16.5929 30.4846 14.4745C33.5895 16.5116 37.1814 17.4475 40.8033 17.2567C41.782 17.6755 42.4429 18.6552 42.4429 19.7362V21.3015L43.9672 21.6577C44.7616 21.8433 45.3381 22.6563 45.3381 23.5911C45.3381 24.5257 44.7616 25.3389 43.9672 25.5245L42.4429 25.8806V27.5374C42.4429 32.9773 38.3712 37.4029 33.3664 37.4029C28.3618 37.4029 24.29 32.9772 24.29 27.5372ZM36.9236 40.8245L37.5116 43.2809L33.4556 57.6214L29.429 43.3844L29.7481 40.8059C32.0827 41.5234 34.5808 41.5311 36.9236 40.8245ZM7.84849 63.0537V53.0471C7.84849 51.1832 9.11919 49.5991 10.9387 49.1948L18.4778 47.4383L16.1863 53.0082L20.2219 55.2501L20.0997 59.282L24.1354 63.0537H7.84849ZM29.9149 63.0537L24.0981 57.6175L24.2389 52.9676L21.1712 51.2632L23.1971 46.3389L25.9799 45.6905L30.8905 63.0537H29.9149ZM36.0202 63.0537L40.9363 45.6713L43.7043 46.3161L45.7396 51.263L42.6719 52.9674L42.8127 57.6173L36.9959 63.0536H36.0202V63.0537ZM59.1501 63.0537H42.7754L46.8112 59.282L46.689 55.2501L50.7246 53.0082L48.424 47.4157C48.7302 47.487 55.1209 48.9759 56.06 49.1947C57.8795 49.599 59.1502 51.183 59.1502 53.047V63.0537H59.1501Z" fill="#D2C4C2"/>
<path d="M29.767 44.462L23.1993 46.3992L21.2148 51.1714L24.2388 52.8724V57.6919L29.9088 63.1728H37.0435L42.8079 57.6919V52.8724L45.8319 51.1714L43.8474 46.3992L37.138 44.462H29.767Z" fill="white"/>
<path d="M27.7832 44.7927L32.6027 63.22H34.5872L39.0759 44.7927" stroke="#A8544A" stroke-width="3.59097"/>
</g>
<defs>
<clipPath id="clip0">
<rect width="67" height="67" fill="white"/>
</clipPath>
</defs>
</svg>
