<svg width="67" height="67" viewBox="0 0 67 67" fill="none" xmlns="http://www.w3.org/2000/svg">
<path d="M63.0087 33.4857C60.8794 33.4857 59.1647 35.1652 59.0202 37.3922C58.9438 38.5699 58.7692 40.2713 58.5699 41.4493C58.2117 41.7373 57.2771 42.0853 56.2694 42.4145V32.1914H58.3631C59.0858 32.1914 59.6717 31.6055 59.6717 30.8828V4.71094C59.6717 3.9882 59.0858 3.40234 58.3631 3.40234H8.63672C7.91411 3.40234 7.32812 3.9882 7.32812 4.71094V30.8828C7.32812 31.6055 7.91411 32.1914 8.63672 32.1914H10.7305V42.4147C9.72272 42.0854 8.78812 41.7375 8.42996 41.4494C8.23066 40.2714 8.0561 38.57 7.97967 37.3924C7.83521 35.1653 6.12055 33.4859 3.99121 33.4859C1.79055 33.4859 0 35.2763 0 37.4771V46.2693C0 48.0131 0.667513 49.3836 2.09977 50.5786L10.7306 58.7498V62.2891C10.7306 63.0118 11.3166 63.5977 12.0392 63.5977H54.9607C55.6833 63.5977 56.2693 63.0118 56.2693 62.2891V58.7498L64.9001 50.5786C66.3324 49.3836 66.9999 48.0131 66.9999 46.2693V37.4771C66.9999 35.2762 65.2093 33.4857 63.0087 33.4857ZM9.94531 6.01953H57.0546V29.5742H9.94531V6.01953ZM64.3827 46.2691C64.3827 47.2485 64.0618 47.8774 63.1987 48.5894C63.1758 48.6084 63.1534 48.628 63.1318 48.6485L54.061 57.2363C53.8 57.4835 53.6521 57.8271 53.6521 58.1866V60.9803H34.8085V40.8445C34.8085 40.1217 34.2225 42.1531 33.4999 42.1531C32.7773 42.1531 32.1913 40.1217 32.1913 40.8445V60.9803H13.3478V58.1866C13.3478 57.8271 13.1999 57.4835 12.9389 57.2363L3.86807 48.6485C3.84648 48.628 3.8241 48.6084 3.8012 48.5894C2.93805 47.8774 2.61719 47.2486 2.61719 46.2691V37.4769C2.61719 36.7193 3.23354 36.1029 3.99121 36.1029C4.82387 36.1029 5.32205 36.8545 5.36785 37.5617C5.45409 38.8901 5.66268 40.9274 5.91681 42.2617C5.94416 42.4058 5.99571 42.5442 6.069 42.6712C6.82131 43.9741 8.83706 44.5872 11.627 45.4356C17.0074 47.0716 21.4609 48.7452 21.4609 52.6708C21.4609 53.3935 22.0469 53.9794 22.7695 53.9794C23.4921 53.9794 24.0781 53.3935 24.0781 52.6708C24.0781 49.9039 22.6378 47.6192 19.7969 45.88C17.8334 44.6779 15.5083 43.8919 13.3477 43.2246V32.1914H16.0957V38.2529C16.0957 38.9757 16.6817 39.5615 17.4043 39.5615C18.1269 39.5615 18.7129 38.9757 18.7129 38.2529V32.1914H21.4609V38.2529C21.4609 38.9757 22.0469 39.5615 22.7695 39.5615C23.4921 39.5615 24.0781 38.9757 24.0781 38.2529V32.1914H26.8262V38.2529C26.8262 38.9757 27.4122 39.5615 28.1348 39.5615C28.8574 39.5615 29.4434 38.9757 29.4434 38.2529V32.1914H32.1913V40.8445C32.1913 41.5672 32.7773 42.1531 33.4999 42.1531C34.2225 42.1531 34.8085 41.5672 34.8085 40.8445V32.1914H37.5565V38.2529C37.5565 38.9757 38.1425 39.5615 38.8651 39.5615C39.5877 39.5615 40.1737 38.9757 40.1737 38.2529V32.1914H42.9217V38.2529C42.9217 38.9757 43.5077 39.5615 44.2303 39.5615C44.9529 39.5615 45.5389 38.9757 45.5389 38.2529V32.1914H48.287V38.2529C48.287 38.9757 48.873 39.5615 49.5956 39.5615C50.3182 39.5615 50.9042 38.9757 50.9042 38.2529V32.1914H53.6522V43.2247C51.4916 43.8919 49.1665 44.6779 47.2029 45.8801C44.3621 47.6193 42.9217 49.904 42.9217 52.6709C42.9217 53.3936 43.5077 53.9795 44.2303 53.9795C44.9529 53.9795 45.5389 53.3936 45.5389 52.6709C45.5389 48.7452 49.9926 47.0716 55.3729 45.4356C58.1627 44.5872 60.1786 43.9742 60.9309 42.6712C61.0043 42.5442 61.0557 42.4058 61.0831 42.2617C61.3372 40.9276 61.5458 38.8901 61.632 37.5616C61.6778 36.8544 62.1759 36.1029 63.0087 36.1029C63.7663 36.1029 64.3827 36.7193 64.3827 37.4769V46.2691Z" fill="#D2C4C2"/>
<path d="M53.1288 12.5625C51.6857 12.5625 50.5116 11.3884 50.5116 9.94531C50.5116 9.22258 49.9256 8.63672 49.203 8.63672H17.7969C17.0743 8.63672 16.4883 9.22258 16.4883 9.94531C16.4883 11.3884 15.3142 12.5625 13.8711 12.5625C13.1485 12.5625 12.5625 13.1484 12.5625 13.8711V21.7227C12.5625 22.4454 13.1485 23.0312 13.8711 23.0312C15.3142 23.0312 16.4883 24.2053 16.4883 25.6484C16.4883 26.3712 17.0743 26.957 17.7969 26.957H49.203C49.9256 26.957 50.5116 26.3712 50.5116 25.6484C50.5116 24.2053 51.6857 23.0312 53.1288 23.0312C53.8514 23.0312 54.4374 22.4454 54.4374 21.7227V13.8711C54.4374 13.1484 53.8514 12.5625 53.1288 12.5625ZM15.1797 20.5795V15.014C17.0164 14.5395 18.4654 13.0905 18.9398 11.2538H30.787C28.2234 12.3207 26.4159 14.8512 26.4159 17.7967C26.4159 20.7423 28.2234 23.2728 30.787 24.3397H18.9398C18.4654 22.5031 17.0164 21.054 15.1797 20.5795ZM33.4999 13.33C35.9629 13.33 37.9668 15.3338 37.9668 17.7967C37.9668 20.2596 35.9629 22.2635 33.4999 22.2635C31.037 22.2635 29.0331 20.2596 29.0331 17.7967C29.0331 15.3338 31.037 13.33 33.4999 13.33ZM51.8202 20.5796C49.9834 21.054 48.5344 22.5031 48.0601 24.3398H36.2127C38.7764 23.2729 40.5839 20.7424 40.5839 17.7969C40.5839 14.8514 38.7764 12.3208 36.2127 11.2539H48.0601C48.5344 13.0906 49.9834 14.5397 51.8202 15.0142V20.5796Z" fill="#A8544A"/>
</svg>
