<svg width="90" height="90" viewBox="0 0 90 90" fill="none" xmlns="http://www.w3.org/2000/svg">
<path d="M88.2422 50.2734H87.5391V48.5156C87.5391 43.6693 83.5963 39.7266 78.75 39.7266H72.9135L68.1557 27.7035C66.8204 24.3288 63.6126 22.1484 59.9834 22.1484H10.1953C9.47654 22.1484 8.8302 22.586 8.56318 23.2534L1.54529 40.7983C1.54441 40.8004 1.40625 41.1328 1.40625 41.4844V50.3088C0.603984 50.4717 0 51.181 0 52.0312V59.0625C0 60.0332 0.786973 60.8203 1.75781 60.8203H17.5781C17.5781 64.6973 20.7323 67.8516 24.6094 67.8516C28.4864 67.8516 31.6406 64.6973 31.6406 60.8203H62.5781C62.5781 64.6973 65.7323 67.8516 69.6094 67.8516C73.4864 67.8516 76.6406 64.6973 76.6406 60.8203H88.2422C89.213 60.8203 90 60.0332 90 59.0625V52.0312C90 51.0606 89.213 50.2734 88.2422 50.2734ZM66.3098 32.6953L69.1223 39.7266H55.8984V32.6953H66.3098ZM11.3855 25.6641H59.9834C62.161 25.6641 64.0856 26.9722 64.8868 28.9971L64.9591 29.1797H40.0781C39.3594 29.1797 38.713 29.6172 38.446 30.2846L34.6693 39.7266H5.76053L11.3855 25.6641ZM7.03125 57.3047H3.51562V53.7891H7.03125V57.3047ZM24.6094 64.3359C22.6709 64.3359 21.0938 62.7588 21.0938 60.8203C21.0938 58.8818 22.6709 57.3047 24.6094 57.3047C26.5479 57.3047 28.125 58.8818 28.125 60.8203C28.125 62.7588 26.5479 64.3359 24.6094 64.3359ZM52.3828 57.3047H30.6947C29.4771 55.2052 27.2062 53.7891 24.6094 53.7891C22.0126 53.7891 19.7418 55.2052 18.524 57.3047H10.5469V52.0312C10.5469 51.0606 9.7599 50.2734 8.78906 50.2734H4.92188V43.2422H52.3828V57.3047ZM52.3828 39.7266H38.4558L41.2683 32.6953H52.3828V39.7266ZM69.6094 64.3359C67.6709 64.3359 66.0938 62.7588 66.0938 60.8203C66.0938 59.8943 66.4564 59.0532 67.0435 58.4248C67.1634 58.3313 67.2852 58.2402 67.4107 58.1546C67.4014 58.137 67.3938 58.1184 67.3856 58.1003C67.9918 57.6035 68.7663 57.3047 69.6094 57.3047C71.5479 57.3047 73.125 58.8818 73.125 60.8203C73.125 62.7588 71.5479 64.3359 69.6094 64.3359ZM79.4531 52.0312V57.3047H75.6947C74.4771 55.2052 72.2062 53.7891 69.6094 53.7891C67.0126 53.7891 64.7418 55.2052 63.524 57.3047H55.8984V43.2422H78.75C81.6578 43.2422 84.0234 45.6079 84.0234 48.5156V50.2734H81.2109C80.2401 50.2734 79.4531 51.0606 79.4531 52.0312ZM86.4844 57.3047H82.9688V53.7891H86.4844V57.3047Z" fill="#D2C4C2"/>
<path d="M30.5859 30.9375H23.5547C22.5861 30.9375 21.7969 31.7268 21.7969 32.6953C21.7969 33.6639 22.5861 34.4531 23.5547 34.4531H30.5859C31.5563 34.4531 32.3438 33.6639 32.3438 32.6953C32.3438 31.7268 31.5563 30.9375 30.5859 30.9375Z" fill="#A8544A"/>
<path d="M16.5234 30.9375C15.5549 30.9375 14.7656 31.7268 14.7656 32.6953C14.7656 33.6639 15.5549 34.4531 16.5234 34.4531C17.4938 34.4531 18.2812 33.6639 18.2812 32.6953C18.2812 31.7268 17.4938 30.9375 16.5234 30.9375Z" fill="#A8544A"/>
<path d="M63.6328 46.7578H61.1719C60.201 46.7578 59.4141 47.545 59.4141 48.5156C59.4141 49.4863 60.201 50.2734 61.1719 50.2734H63.6328C64.6037 50.2734 65.3906 49.4863 65.3906 48.5156C65.3906 47.545 64.6037 46.7578 63.6328 46.7578Z" fill="#A8544A"/>
</svg>
