<svg width="67" height="67" viewBox="0 0 67 67" fill="none" xmlns="http://www.w3.org/2000/svg">
<path d="M60.7188 63.0742H58.4941V54.4375C58.4941 53.3535 57.6153 52.4746 56.5312 52.4746H52.2129V10.4688C52.2129 9.38471 51.334 8.50586 50.25 8.50586H46.6643C44.2806 3.36544 39.1526 0 33.5 0C27.8474 0 22.7194 3.36544 20.3357 8.50586H16.75C15.666 8.50586 14.7871 9.38471 14.7871 10.4688V52.4746H10.4688C9.38471 52.4746 8.50586 53.3535 8.50586 54.4375V63.0742H6.28125C5.19721 63.0742 4.31836 63.9531 4.31836 65.0371C4.31836 66.1211 5.19721 67 6.28125 67H60.7188C61.8028 67 62.6816 66.1211 62.6816 65.0371C62.6816 63.9531 61.8028 63.0742 60.7188 63.0742ZM18.7129 12.4316H21.6533C22.4853 12.4316 23.227 11.907 23.5042 11.1224C25.0244 6.8179 29.0415 3.92578 33.5 3.92578C37.9585 3.92578 41.9756 6.8179 43.496 11.1224C43.773 11.907 44.5147 12.4316 45.3467 12.4316H48.2871V52.4746H18.7129V12.4316ZM12.4316 63.0742V56.4004H54.5684V63.0742H12.4316Z" fill="#D2C4C2"/>
<path d="M29.3125 18.7129H31.5371V24.0781C31.5371 25.1622 32.416 26.041 33.5 26.041C34.584 26.041 35.4629 25.1622 35.4629 24.0781V18.7129H37.6875C38.7715 18.7129 39.6504 17.834 39.6504 16.75C39.6504 15.666 38.7715 14.7871 37.6875 14.7871H35.4629V12.5625C35.4629 11.4785 34.584 10.5996 33.5 10.5996C32.416 10.5996 31.5371 11.4785 31.5371 12.5625V14.7871H29.3125C28.2285 14.7871 27.3496 15.666 27.3496 16.75C27.3496 17.834 28.2285 18.7129 29.3125 18.7129Z" fill="#A8544A"/>
<path d="M41.875 31.5371H25.125C24.041 31.5371 23.1621 32.416 23.1621 33.5C23.1621 34.584 24.041 35.4629 25.125 35.4629H41.875C42.959 35.4629 43.8379 34.584 43.8379 33.5C43.8379 32.416 42.959 31.5371 41.875 31.5371Z" fill="#D2C4C2"/>
<path d="M41.875 42.0059H25.125C24.041 42.0059 23.1621 42.8847 23.1621 43.9688C23.1621 45.0528 24.041 45.9316 25.125 45.9316H41.875C42.959 45.9316 43.8379 45.0528 43.8379 43.9688C43.8379 42.8847 42.959 42.0059 41.875 42.0059Z" fill="#D2C4C2"/>
</svg>
