<svg width="67" height="67" viewBox="0 0 67 67" fill="none" xmlns="http://www.w3.org/2000/svg">
<path d="M57.4453 33.4224C57.4453 26.2488 54.7355 21.8691 52.462 19.458C51.8848 18.8458 51.3085 18.3275 50.7597 17.8898C51.8185 16.8245 52.4741 15.3579 52.4741 13.7408C52.4741 10.7765 50.2721 8.31795 47.4182 7.91202C46.5298 3.40797 42.5514 0 37.7905 0H29.2075C24.4468 0 20.4682 3.40797 19.5798 7.91215C16.7259 8.31808 14.5239 10.7765 14.5239 13.7409C14.5239 15.3579 15.1794 16.8246 16.2383 17.8899C15.6895 18.3278 15.1132 18.8461 14.536 19.4581C12.2627 21.8691 9.55273 26.249 9.55273 33.4225C9.55273 43.2859 17.4972 55.0103 19.3932 57.6678V61.1113C19.3932 64.3583 22.0349 67 25.2819 67H41.716C44.963 67 47.6047 64.3583 47.6047 61.1113V57.6678C49.5008 55.0101 57.4453 43.2858 57.4453 33.4224ZM22.3671 55.0675C21.5156 53.8442 19.8201 51.3003 18.1359 48.1502H48.8621C47.1778 51.3007 45.4821 53.8447 44.6309 55.0675H22.3671ZM29.2075 3.92578H37.7905C40.3496 3.92578 42.5313 5.56728 43.3413 7.85209H23.6568C24.4668 5.56728 26.6485 3.92578 29.2075 3.92578ZM20.4126 11.7779H21.3511C21.3521 11.7779 21.3531 11.778 21.354 11.778C21.3548 11.778 21.3556 11.7779 21.3564 11.7779H46.5853C47.6676 11.7779 48.5482 12.6584 48.5482 13.7408C48.5482 14.8231 47.6676 15.7036 46.5853 15.7036H20.4126C19.3303 15.7036 18.4497 14.8231 18.4497 13.7408C18.4497 12.6584 19.3303 11.7779 20.4126 11.7779ZM20.7985 19.6294H46.1995C47.1944 20.0767 50.5406 21.8815 52.3443 26.5467H14.6538C16.4574 21.8815 19.8037 20.0767 20.7985 19.6294ZM13.6689 30.4724H53.3292C53.4515 31.3833 53.5195 32.3645 53.5195 33.4224C53.5195 36.8759 52.3215 40.7135 50.7789 44.2243H16.2192C14.6765 40.7134 13.4785 36.8759 13.4785 33.4224C13.4786 32.3647 13.5467 31.3835 13.6689 30.4724ZM41.7161 63.0742H25.282C24.1997 63.0742 23.3191 62.1937 23.3191 61.1113V58.9932H43.679V61.1113C43.679 62.1937 42.7985 63.0742 41.7161 63.0742Z" fill="#D2C4C2"/>
<path d="M33.5 39.3111C34.5841 39.3111 35.4629 38.4323 35.4629 37.3482C35.4629 36.2641 34.5841 35.3853 33.5 35.3853C32.4159 35.3853 31.5371 36.2641 31.5371 37.3482C31.5371 38.4323 32.4159 39.3111 33.5 39.3111Z" fill="#A8544A"/>
<path d="M25.6484 39.3111C26.7325 39.3111 27.6113 38.4323 27.6113 37.3482C27.6113 36.2641 26.7325 35.3853 25.6484 35.3853C24.5644 35.3853 23.6855 36.2641 23.6855 37.3482C23.6855 38.4323 24.5644 39.3111 25.6484 39.3111Z" fill="#A8544A"/>
<path d="M41.3516 39.3111C42.4356 39.3111 43.3145 38.4323 43.3145 37.3482C43.3145 36.2641 42.4356 35.3853 41.3516 35.3853C40.2675 35.3853 39.3887 36.2641 39.3887 37.3482C39.3887 38.4323 40.2675 39.3111 41.3516 39.3111Z" fill="#A8544A"/>
</svg>
